<?xml version="1.0" encoding="utf-8"?>
<!-- Generator: Adobe Illustrator 23.0.4, SVG Export Plug-In . SVG Version: 6.00 Build 0)  -->
<svg version="1.1" id="Layer_1" xmlns="http://www.w3.org/2000/svg" xmlns:xlink="http://www.w3.org/1999/xlink" x="0px" y="0px"
	 viewBox="0 0 100 100" style="enable-background:new 0 0 100 100;" xml:space="preserve">
<style type="text/css">
	.st0{fill:#FFFFFF;}
	.st1{fill:#8B7565;}
	.st2{fill:#BC9B72;}
</style>
<g>
	<circle class="st0" cx="50" cy="50" r="50"/>
	<g>
		<g>
			<path class="st1" d="M81.36,49.99c0-2.51,0.77-4.78,1.18-5.62l0.25-0.52l-0.99,0.52c-1.87,0.98-3.81,2-6.04,2.43
				c-1.64,0.38-8.74,0.38-15.61,0.38c-2.47,0-5.03,0-7.33,0.02c0.02-2.31,0.02-4.88,0.02-7.36c0-6.86,0-13.95,0.38-15.59
				c0.43-2.23,1.45-4.19,2.44-6.08l0.5-0.96l-0.52,0.25c-0.86,0.41-3.13,1.19-5.62,1.19c-2.5,0-4.78-0.78-5.64-1.19l-0.08-0.04
				l-0.26,0.13l0.32,0.62c0.99,1.89,2.02,3.84,2.44,6.08c0.38,1.64,0.38,8.74,0.38,15.61c0,2.47,0,5.03,0.02,7.33
				c-2.3-0.02-4.85-0.02-7.32-0.02c-6.87,0-13.98,0-15.62-0.38c-2.23-0.43-4.19-1.45-6.07-2.44l-0.96-0.5l0.25,0.52
				c0.41,0.85,1.19,3.13,1.19,5.62c0,2.5-0.78,4.78-1.19,5.64l-0.25,0.52l0.96-0.5c1.89-0.99,3.84-2.02,6.08-2.44
				c1.63-0.38,8.73-0.38,15.6-0.38c2.48,0,5.03,0,7.34-0.02c-0.02,2.3-0.02,4.86-0.02,7.33c0,6.87,0,13.98-0.38,15.62
				c-0.43,2.24-1.45,4.19-2.44,6.08l-0.5,0.96l0.52-0.25c0.85-0.41,3.13-1.19,5.64-1.19c2.49,0,4.77,0.78,5.62,1.19l0.52,0.25
				l-0.5-0.96c-0.99-1.89-2.02-3.84-2.44-6.08c-0.38-1.64-0.38-8.74-0.38-15.61c0-2.47,0-5.02-0.02-7.33
				c2.3,0.02,4.86,0.02,7.33,0.02c6.87,0,13.98,0,15.62,0.38c2.22,0.42,4.16,1.44,6.03,2.43l0.99,0.52l-0.25-0.52
				C82.07,54.65,81.36,52.33,81.36,49.99z"/>
			<path class="st2" d="M65.93,43.68l-0.31,0.08l-0.05-0.01c-0.15-0.04-0.32-0.06-0.49-0.07c-0.18-0.01-0.35-0.01-0.52-0.01
				c-0.17,0-0.34,0-0.52,0.01c-0.17,0.01-0.34,0.03-0.49,0.07l-0.19,0.04l-0.07-0.19c-0.47-1.32-0.98-2.59-1.5-3.76
				c-0.46-1.05-0.95-2.14-1.46-3.25c-0.45,1.01-0.9,2.07-1.35,3.16c-0.51,1.25-1.02,2.54-1.5,3.86l-0.08,0.21l-0.21-0.08
				c-0.09-0.03-0.19-0.05-0.31-0.06c-0.14-0.01-0.26-0.01-0.37-0.01c-0.11,0-0.23,0-0.37,0.01c-0.13,0.01-0.23,0.03-0.32,0.06
				l-0.5,0.18l4.22-9.11l-4.09-9.12l0.44,0.11c0.14,0.04,0.3,0.06,0.47,0.06c0.18,0.01,0.34,0.01,0.5,0.01c0.16,0,0.33,0,0.51-0.01
				c0.17-0.01,0.33-0.03,0.49-0.07l0.2-0.04l0.06,0.19c0.27,0.81,0.68,1.83,1.21,3.03c0.48,1.08,0.99,2.22,1.53,3.43
				c0.63-1.33,1.12-2.42,1.47-3.23c0.39-0.9,0.82-1.98,1.27-3.24l0.08-0.21l0.21,0.07c0.09,0.03,0.19,0.05,0.32,0.06
				c0.14,0.01,0.27,0.01,0.37,0.01c0.11,0,0.23,0,0.37-0.01c0.13-0.01,0.23-0.03,0.32-0.06l0.51-0.18l-0.24,0.49
				c-0.41,0.83-0.96,1.95-1.65,3.33c-0.68,1.36-1.44,2.94-2.26,4.72c0.76,1.72,1.47,3.33,2.12,4.79c0.66,1.48,1.36,2.99,2.08,4.49
				L65.93,43.68z M76.8,39.2l-0.16,0.26c-0.61,1-1.19,1.71-1.74,2.11c-0.53,0.38-1.19,0.57-1.95,0.56
				c-1.34-0.08-2.31-0.84-2.97-2.34c-0.68-1.53-1.02-3.32-1.02-5.32c0.02-1.78,0.24-3.22,0.65-4.28c0.41-1.05,0.9-1.82,1.46-2.28
				c0.54-0.44,1.04-0.67,1.5-0.67c0.01,0,0.02,0,0.02,0c0.78-0.01,1.47,0.21,2.06,0.65c0.6,0.44,1.09,1.2,1.45,2.24l0.06,0.17
				l0.54-0.08l0.01-0.18c0.03-0.63,0.07-1.13,0.12-1.49c0.05-0.36,0.13-0.86,0.24-1.47L77.1,27l-0.07-0.15
				c-0.04-0.08-0.07-0.14-1.26-0.7c-0.77-0.36-1.75-0.58-2.91-0.63l-0.01,0l-0.01,0c-1.67,0.06-3.12,0.97-4.33,2.72
				c-1.19,1.73-1.82,3.99-1.88,6.73c0,1.49,0.23,2.92,0.67,4.26c0.45,1.35,1.13,2.47,2.03,3.34c0.91,0.88,2.07,1.34,3.43,1.37
				c0.93,0,1.8-0.33,2.59-0.97c0.77-0.63,1.47-1.56,2.1-2.78l0.07-0.13L76.8,39.2z M28.65,40.93c-0.03-0.9-0.04-1.86-0.04-2.87
				v-6.59c0-1.01,0.01-1.99,0.04-2.91c0.03-0.91,0.07-1.74,0.15-2.45l0.01-0.06l-0.14-0.3l-0.18,0.04
				c-0.11,0.02-0.26,0.04-0.43,0.06c-0.18,0.01-0.33,0.02-0.45,0.02c0,0,0,0,0,0c-0.12,0-0.27-0.01-0.45-0.02
				c-0.18-0.01-0.32-0.03-0.43-0.06l-0.18-0.04l-0.13,0.3l0.01,0.06c0.07,0.76,0.12,1.6,0.15,2.5c0.03,0.9,0.04,1.86,0.04,2.87v6.59
				c0,1.01-0.01,1.99-0.04,2.9c-0.03,0.91-0.07,1.74-0.15,2.46l-0.01,0.06l0.13,0.3l0.18-0.04c0.11-0.02,0.26-0.04,0.43-0.06
				c0.18-0.01,0.34-0.02,0.45-0.02c0.11,0,0.27,0.01,0.45,0.02c0.18,0.01,0.32,0.03,0.43,0.06l0.18,0.04l0.13-0.3l-0.01-0.06
				C28.72,42.67,28.67,41.83,28.65,40.93z M41.2,39.2l-0.16,0.26c-0.61,1-1.19,1.71-1.74,2.11c-0.53,0.38-1.19,0.57-1.95,0.56
				c-1.34-0.08-2.31-0.84-2.97-2.34c-0.68-1.53-1.02-3.32-1.02-5.32c0.02-1.78,0.24-3.22,0.65-4.28c0.41-1.05,0.9-1.82,1.46-2.28
				c0.55-0.45,1.06-0.68,1.53-0.67c0.77-0.01,1.47,0.21,2.06,0.65c0.6,0.44,1.09,1.2,1.45,2.24l0.06,0.17l0.54-0.08l0.01-0.18
				c0.03-0.63,0.07-1.13,0.12-1.49c0.05-0.36,0.13-0.86,0.24-1.47L41.5,27l-0.07-0.15c-0.04-0.08-0.07-0.14-1.26-0.7
				c-0.73-0.35-1.65-0.55-2.75-0.62l0-0.01l-0.18,0.01c-1.67,0.06-3.12,0.97-4.33,2.72c-1.19,1.73-1.82,3.99-1.88,6.73
				c0,1.49,0.23,2.92,0.67,4.26c0.45,1.35,1.13,2.47,2.03,3.34c0.91,0.88,2.07,1.34,3.43,1.37c0.93,0,1.8-0.33,2.58-0.97
				c0.77-0.63,1.47-1.56,2.1-2.78l0.07-0.13L41.2,39.2z M60.91,64.49c0.66-1.1,1.53-2.4,2.58-3.87c1.08-1.51,2.06-2.83,2.91-3.93
				l0.4-0.51l-0.63,0.16c-0.13,0.03-0.28,0.06-0.43,0.06c-0.16,0.01-0.31,0.01-0.45,0.01c-0.13,0-0.27,0-0.43-0.01
				c-0.15-0.01-0.29-0.03-0.39-0.06l-0.17-0.05l-0.09,0.15c-0.82,1.39-1.7,2.81-2.6,4.21c-0.91,1.4-1.78,2.65-2.58,3.7
				c0,0-0.01,0.01-0.01,0.01v-2.35c0-1.01,0.01-1.99,0.04-2.91c0.03-0.91,0.07-1.74,0.15-2.45l0.01-0.06l-0.14-0.3l-0.18,0.04
				c-0.11,0.02-0.26,0.04-0.43,0.06c-0.18,0.01-0.33,0.02-0.45,0.02c-0.12,0-0.27-0.01-0.45-0.02c-0.18-0.01-0.32-0.03-0.43-0.06
				l-0.18-0.04l-0.13,0.3l0.01,0.06c0.07,0.76,0.12,1.6,0.15,2.5c0.03,0.9,0.04,1.86,0.04,2.87v6.59c0,1.01-0.01,1.98-0.04,2.9
				c-0.03,0.91-0.07,1.74-0.15,2.46l-0.01,0.06l0.13,0.3l0.18-0.04c0.11-0.02,0.26-0.04,0.43-0.06c0.18-0.01,0.34-0.02,0.45-0.02
				c0.12,0,0.27,0.01,0.45,0.02c0.18,0.01,0.32,0.03,0.43,0.06l0.18,0.04l0.13-0.3l-0.01-0.06c-0.07-0.76-0.12-1.6-0.15-2.5
				c-0.03-0.9-0.04-1.86-0.04-2.87v-3.07c0.27,0.41,0.67,1.08,1.2,1.99c0.57,0.98,1.2,2.09,1.88,3.3c0.67,1.2,1.3,2.33,1.86,3.35
				l0.08,0.15l0.16-0.04c0.15-0.04,0.33-0.06,0.52-0.06c0.21-0.01,0.39-0.01,0.56-0.01c0.16,0,0.33,0,0.55,0.01
				c0.19,0.01,0.36,0.03,0.53,0.07l0.5,0.11L60.91,64.49z M78.33,74.38l-0.38-0.09c-0.15-0.04-0.32-0.06-0.51-0.06
				c-0.22-0.01-0.39-0.01-0.54-0.01c-0.15,0-0.3,0-0.45,0.01c-0.14,0.01-0.27,0.03-0.42,0.06l-0.23,0.06l-0.04-0.23
				c-0.05-0.29-0.19-0.97-0.41-2c-0.22-1.01-0.54-2.37-0.96-4.04c-0.29-0.01-0.59-0.02-0.9-0.03c-0.37-0.01-0.73-0.01-1.07-0.01
				c-0.33,0-0.71,0.01-1.15,0.01c-0.37,0.01-0.72,0.02-1.04,0.03c-0.31,1.12-0.6,2.2-0.85,3.21c-0.26,1.06-0.47,2.01-0.62,2.83
				l-0.05,0.25l-0.24-0.08c-0.1-0.03-0.22-0.05-0.36-0.06c-0.18-0.01-0.3-0.01-0.39-0.01c-0.1,0-0.2,0-0.3,0.01
				c-0.09,0.01-0.18,0.03-0.27,0.06l-0.41,0.15l0.13-0.42c0.91-2.94,1.83-5.93,2.73-8.88c0.89-2.94,1.79-5.93,2.66-8.9l0.05-0.16
				h0.84l0.05,0.16c0.57,2.02,1.19,4.25,1.84,6.63c0.65,2.39,1.27,4.63,1.83,6.65c0.56,2.03,1.01,3.54,1.33,4.5L78.33,74.38z
				 M72.37,60.68l-1.65,5.68c0.22,0.01,0.45,0.01,0.69,0.02c0.35,0.01,0.66,0.02,0.93,0.02c0.28,0,0.59,0,0.93-0.01
				c0.24-0.01,0.47-0.01,0.7-0.02C73.53,64.72,73,62.81,72.37,60.68z M36.18,56.29L36,56.34c-0.1,0.02-0.2,0.04-0.29,0.06
				c-0.09,0.01-0.19,0.02-0.29,0.02c-0.11,0-0.2-0.01-0.29-0.02c-0.1-0.01-0.2-0.03-0.29-0.06l-0.18-0.04l-0.14,0.3l0.01,0.06
				c0.07,0.76,0.12,1.6,0.15,2.49c0.03,0.9,0.04,1.86,0.04,2.87v7.18c0,0.18-0.01,0.32-0.02,0.42c-0.13-0.21-0.33-0.57-0.64-1.19
				l-6.27-11.95l-0.09-0.16l-0.18,0.05c-0.01,0-0.04,0.01-0.08,0.02c-0.04,0.01-0.08,0.02-0.1,0.02c-0.22,0-0.37-0.01-0.46-0.02
				l0.14-0.32l-0.69,0.35l0.01,0.09l-0.03,0.07l0,0.05c0.05,1.73,0.09,3.69,0.09,5.82c0.01,2.12-0.01,4.23-0.06,6.26
				c-0.04,2.03-0.12,3.8-0.21,5.26l0,0.06l0.13,0.3l0.18-0.04c0.1-0.02,0.2-0.04,0.3-0.06c0.19-0.03,0.4-0.02,0.58,0
				c0.1,0.01,0.2,0.03,0.29,0.06l0.18,0.04l0.14-0.3l-0.01-0.06c-0.07-0.76-0.12-1.6-0.15-2.5c-0.03-0.9-0.04-1.87-0.04-2.87l0-6.43
				c-0.01-0.41,0-0.68,0.01-0.85c0.07,0.12,0.16,0.29,0.29,0.53l6.37,11.86c0.12,0.23,0.26,0.41,0.42,0.55
				c0.18,0.15,0.37,0.22,0.57,0.22c0.13,0,0.36-0.06,0.47-0.38c0.06-0.17,0.09-0.39,0.1-0.68c0.04-3.01,0.07-5.83,0.11-8.46
				c0.03-2.61,0.12-5.41,0.26-8.33l0-0.05L36.18,56.29z M41.4,71.48c-0.03-0.89-0.04-1.86-0.04-2.87v-6.59
				c0-1.01,0.01-1.99,0.04-2.91c0.03-0.91,0.07-1.74,0.15-2.45l0.01-0.06l-0.13-0.3l-0.18,0.04c-0.11,0.02-0.26,0.04-0.43,0.06
				c-0.18,0.01-0.33,0.02-0.45,0.02c-0.12,0-0.27-0.01-0.45-0.02c-0.18-0.01-0.32-0.03-0.43-0.06L39.3,56.3l-0.13,0.3l0.01,0.06
				c0.07,0.76,0.12,1.6,0.15,2.5c0.03,0.89,0.04,1.86,0.04,2.87v6.59c0,1.01-0.01,1.99-0.04,2.9c-0.03,0.91-0.07,1.74-0.15,2.46
				l-0.01,0.06l0.14,0.3l0.18-0.04c0.11-0.02,0.26-0.04,0.43-0.06c0.18-0.01,0.33-0.02,0.45-0.02c0.12,0,0.27,0.01,0.45,0.02
				c0.18,0.01,0.32,0.03,0.43,0.06l0.18,0.04l0.13-0.3l-0.01-0.06C41.48,73.21,41.43,72.37,41.4,71.48z M28.76,24.09
				c-0.18,0-0.32-0.05-0.43-0.14c-0.11-0.09-0.16-0.19-0.16-0.32c0.01-0.23,0.12-0.45,0.32-0.66c0.2-0.21,0.42-0.32,0.67-0.34h9.07
				c0.2,0.01,0.34,0.06,0.43,0.15c0.09,0.1,0.13,0.21,0.13,0.33c-0.01,0.17-0.13,0.37-0.34,0.6c-0.22,0.23-0.46,0.35-0.73,0.37
				L28.76,24.09z M61.82,24.09c-0.18,0-0.32-0.05-0.43-0.14c-0.11-0.09-0.16-0.19-0.16-0.32c0.01-0.23,0.12-0.45,0.32-0.66
				c0.2-0.21,0.42-0.32,0.67-0.34h9.07c0.2,0.01,0.34,0.06,0.43,0.15c0.09,0.1,0.13,0.21,0.13,0.33c-0.01,0.17-0.13,0.37-0.34,0.6
				c-0.22,0.23-0.46,0.35-0.73,0.37L61.82,24.09z"/>
		</g>
		<g>
			<path class="st1" d="M23.48,89.11l-2.23-1.78l0.12-0.15c0.41,0.3,0.69,0.35,0.84,0.15c0.11-0.14,0.22-0.58,0.34-1.31l0.48-3.07
				l-2.56,1.41c-0.54,0.3-0.87,0.52-0.99,0.67c-0.17,0.21-0.1,0.48,0.2,0.8l-0.12,0.15l-1.72-1.37l0.12-0.15
				c0.44,0.27,0.97,0.24,1.58-0.09l3.04-1.66c0.78-0.42,1.37-0.7,1.76-0.84c0.39-0.13,0.73-0.18,1.03-0.15s0.56,0.14,0.78,0.31
				c0.19,0.15,0.31,0.31,0.38,0.5c0.06,0.18,0.04,0.34-0.07,0.48c-0.08,0.1-0.18,0.16-0.3,0.17c-0.12,0.01-0.24-0.03-0.36-0.12
				c-0.11-0.09-0.21-0.24-0.3-0.46c-0.06-0.14-0.12-0.23-0.17-0.28c-0.21-0.17-0.63-0.14-1.25,0.09l-0.8,5.1
				c-0.06,0.36-0.06,0.64-0.02,0.84c0.04,0.2,0.15,0.4,0.33,0.6L23.48,89.11z"/>
			<path class="st1" d="M19.32,82.73l-2.95-2.98l0.14-0.14c0.17,0.17,0.29,0.26,0.38,0.28c0.09,0.02,0.17,0.03,0.25,0.01
				c0.08-0.02,0.26-0.16,0.53-0.43l1.67-1.65c0.35-0.35,0.54-0.59,0.56-0.73c0.02-0.14-0.08-0.32-0.29-0.55l1.07-1.06l0.14,0.14
				c-0.19,0.21-0.32,0.43-0.38,0.67c-0.06,0.24-0.04,0.47,0.05,0.69c0.1,0.22,0.3,0.49,0.61,0.8l0.86,0.87
				c0.27,0.27,0.5,0.46,0.7,0.56c0.2,0.11,0.42,0.13,0.68,0.08c0.25-0.05,0.5-0.17,0.75-0.37l0.13,0.14l-1.07,1.06
				c-0.21-0.19-0.47-0.3-0.78-0.31c-0.32-0.01-0.76,0.14-1.33,0.45c-0.57,0.31-1.07,0.68-1.5,1.11c-0.42,0.42-0.45,0.82-0.09,1.22
				L19.32,82.73z M18.76,81.67l0.2-0.2c1.21-1.19,2.32-1.86,3.35-2.01l-1.24-1.26c-0.22-0.23-0.37-0.34-0.44-0.33
				c-0.07,0-0.23,0.13-0.47,0.37l-2.42,2.39L18.76,81.67z"/>
			<path class="st1" d="M16.34,79l-1.36-0.8l-0.12-0.16l0.88-0.67c-0.48,0.06-0.86,0.04-1.15-0.05c-0.28-0.09-0.51-0.25-0.67-0.47
				c-0.29-0.38-0.38-0.81-0.28-1.29c0.13-0.59,0.48-1.1,1.06-1.55c0.65-0.5,1.33-0.72,2.05-0.67c0.58,0.04,1.05,0.3,1.41,0.76
				c0.16,0.2,0.26,0.4,0.32,0.59c0.04,0.14,0.05,0.33,0.04,0.56l1.15-0.88c0.26-0.2,0.41-0.34,0.46-0.42
				c0.05-0.09,0.06-0.18,0.04-0.29c-0.02-0.11-0.11-0.27-0.26-0.47l0.15-0.12l1.51,1.98l-0.15,0.12l-0.08-0.1
				c-0.11-0.15-0.24-0.26-0.38-0.32c-0.07-0.03-0.15-0.03-0.24-0.01c-0.09,0.02-0.27,0.14-0.55,0.35l-3.57,2.73
				c-0.24,0.19-0.39,0.32-0.44,0.39c-0.05,0.07-0.07,0.15-0.07,0.22c0,0.07,0.04,0.15,0.1,0.23c0.05,0.07,0.13,0.14,0.25,0.21
				L16.34,79z M15.99,77.18l1.41-1.08c0.31-0.23,0.5-0.4,0.57-0.5c0.13-0.16,0.2-0.36,0.21-0.6c0.01-0.24-0.08-0.48-0.25-0.71
				c-0.21-0.27-0.49-0.42-0.83-0.42c-0.45-0.01-0.93,0.18-1.44,0.57c-0.58,0.44-0.93,0.91-1.04,1.4c-0.08,0.34-0.03,0.63,0.16,0.87
				c0.1,0.13,0.23,0.24,0.4,0.32C15.29,77.09,15.57,77.14,15.99,77.18z"/>
			<path class="st1" d="M12.57,74.81l-1.12-1.91l0.17-0.1l0.05,0.09c0.08,0.13,0.17,0.22,0.26,0.25c0.1,0.03,0.19,0.02,0.28-0.03
				c0.12-0.07,0.25-0.21,0.4-0.43l1.49-2.21l-2.8,0.4c-0.15,0.02-0.29,0.07-0.41,0.14c-0.05,0.03-0.09,0.07-0.1,0.1
				c-0.02,0.04-0.02,0.1-0.01,0.16c0.01,0.06,0.05,0.16,0.13,0.29l-0.17,0.1l-0.78-1.34l0.17-0.1c0.08,0.1,0.15,0.17,0.22,0.21
				c0.07,0.04,0.18,0.07,0.32,0.08c0.06,0,0.2-0.01,0.43-0.05l5.07-0.72c0.49-0.07,0.92-0.03,1.27,0.11
				c0.36,0.14,0.6,0.34,0.75,0.58c0.1,0.18,0.14,0.35,0.1,0.52c-0.04,0.17-0.12,0.3-0.25,0.37c-0.13,0.07-0.25,0.09-0.37,0.05
				c-0.12-0.04-0.23-0.13-0.31-0.27c-0.06-0.1-0.1-0.25-0.14-0.46c-0.02-0.15-0.05-0.23-0.06-0.26c-0.05-0.09-0.16-0.16-0.31-0.21
				c-0.15-0.05-0.4-0.05-0.72-0.01l-0.88,0.12l-2.24,3.28c-0.07,0.1-0.14,0.24-0.22,0.42c-0.06,0.14-0.1,0.24-0.1,0.31
				c-0.01,0.1,0.01,0.23,0.07,0.4L12.57,74.81z"/>
			<path class="st1" d="M13.21,65.94l-0.18,0.07c-0.15-0.29-0.3-0.45-0.47-0.47c-0.16-0.03-0.44,0.04-0.85,0.2l-1,0.4
				c0.08,0.21,0.16,0.34,0.24,0.39c0.08,0.05,0.3,0.09,0.68,0.13l1.93,0.19l0.52,1.3l-0.18,0.07c-0.11-0.22-0.24-0.36-0.39-0.43
				c-0.16-0.07-0.47-0.13-0.95-0.16c-0.72-0.06-1.17-0.13-1.35-0.22c-0.18-0.09-0.31-0.21-0.39-0.36c-0.01,0.23-0.2,0.52-0.57,0.87
				c-0.18,0.17-0.29,0.29-0.33,0.36c-0.05,0.07-0.05,0.15-0.02,0.24c0.03,0.06,0.08,0.14,0.16,0.22c0.12,0.12,0.19,0.22,0.22,0.3
				c0.05,0.13,0.05,0.25-0.01,0.36c-0.06,0.11-0.15,0.19-0.27,0.24c-0.14,0.06-0.27,0.04-0.39-0.04c-0.12-0.08-0.21-0.2-0.27-0.35
				c-0.11-0.26-0.11-0.51-0.02-0.73c0.09-0.22,0.31-0.48,0.65-0.79c0.33-0.29,0.51-0.55,0.56-0.77c0.05-0.22,0.02-0.46-0.08-0.72
				l-0.72,0.29c-0.41,0.17-0.67,0.32-0.75,0.45c-0.09,0.13-0.09,0.35,0,0.65L8.79,67.7l-0.87-2.18l0.18-0.07
				c0.15,0.28,0.3,0.44,0.46,0.47c0.16,0.03,0.44-0.03,0.85-0.19l0.72-0.29c-0.1-0.25-0.24-0.44-0.43-0.57
				c-0.18-0.13-0.5-0.18-0.93-0.17c-0.56,0.02-0.94-0.04-1.12-0.18c-0.18-0.14-0.31-0.3-0.38-0.47c-0.08-0.19-0.09-0.35-0.04-0.48
				c0.05-0.13,0.13-0.22,0.25-0.27c0.12-0.05,0.24-0.05,0.36-0.01c0.12,0.04,0.2,0.12,0.25,0.25c0.03,0.08,0.05,0.2,0.05,0.37
				c0,0.11,0.01,0.2,0.03,0.25c0.04,0.09,0.1,0.15,0.18,0.17c0.09,0.02,0.25,0.03,0.49,0.03c0.51,0,0.85,0.08,1.01,0.24
				c-0.05-0.17-0.04-0.35,0.04-0.55c0.08-0.19,0.35-0.55,0.81-1.06c0.32-0.36,0.52-0.63,0.58-0.79c0.06-0.16,0.06-0.36-0.01-0.59
				l0.18-0.07l0.52,1.3l-1.27,1.47c-0.25,0.29-0.38,0.48-0.41,0.57c-0.02,0.09,0.01,0.24,0.1,0.45l1-0.4
				c0.46-0.18,0.72-0.34,0.78-0.48c0.06-0.13,0.05-0.34-0.02-0.63l0.18-0.07L13.21,65.94z"/>
			<path class="st1" d="M8.47,61.37c0.69-0.16,1.18-0.46,1.49-0.89c0.31-0.43,0.41-0.87,0.3-1.33c-0.07-0.3-0.22-0.55-0.44-0.73
				c-0.22-0.18-0.55-0.3-0.99-0.36l0.06-0.18c0.48-0.04,0.95,0.06,1.41,0.31c0.46,0.25,0.75,0.63,0.88,1.14
				c0.13,0.55,0.03,1.08-0.3,1.58c-0.34,0.5-0.87,0.84-1.6,1.01c-0.79,0.19-1.46,0.14-2-0.16c-0.54-0.3-0.88-0.75-1.03-1.36
				c-0.13-0.52-0.06-0.98,0.2-1.4c0.26-0.42,0.68-0.69,1.25-0.83L8.47,61.37z M8.18,61.44L7.66,59.3c-0.29,0.09-0.49,0.17-0.6,0.26
				c-0.17,0.13-0.29,0.29-0.35,0.48c-0.07,0.19-0.08,0.38-0.03,0.56c0.07,0.28,0.24,0.5,0.51,0.67C7.45,61.44,7.78,61.5,8.18,61.44z
				"/>
			<path class="st1" d="M7.66,55.88l-0.18-1.97l-1,0.09c-0.33,0.03-0.54,0.07-0.63,0.11c-0.09,0.04-0.16,0.12-0.19,0.22
				c-0.04,0.1-0.04,0.29-0.02,0.56l-0.2,0.02L5.21,52.4l0.2-0.02c0.02,0.26,0.06,0.44,0.1,0.54c0.04,0.1,0.11,0.17,0.21,0.21
				c0.1,0.04,0.33,0.04,0.68,0.01l1-0.09l-0.05-0.51c-0.07-0.78-0.01-1.35,0.19-1.71c0.2-0.36,0.49-0.56,0.87-0.59
				c0.38-0.03,0.71,0.1,1.01,0.41s0.46,0.74,0.52,1.31l0.23,2.53l-0.19,0.02c-0.03-0.24-0.06-0.41-0.09-0.5
				c-0.04-0.09-0.11-0.16-0.22-0.2c-0.11-0.04-0.34-0.05-0.67-0.02l-1.17,0.1l0.18,1.97l1.17-0.1c0.37-0.03,0.59-0.07,0.65-0.12
				s0.12-0.11,0.17-0.19c0.05-0.08,0.06-0.28,0.03-0.58l0.19-0.02l0.21,2.38l-0.19,0.02c-0.03-0.31-0.1-0.5-0.22-0.57
				c-0.12-0.08-0.37-0.1-0.76-0.06l-2.51,0.22c-0.37,0.03-0.58,0.07-0.65,0.12c-0.06,0.04-0.12,0.11-0.17,0.19
				c-0.05,0.08-0.06,0.25-0.04,0.49l-0.2,0.02l-0.21-2.38l0.2-0.02c0.03,0.31,0.07,0.5,0.12,0.57c0.06,0.07,0.12,0.12,0.19,0.16
				c0.07,0.04,0.3,0.04,0.67,0L7.66,55.88z M9.61,52.86c0.03-0.21,0.04-0.41,0.02-0.6c-0.03-0.33-0.15-0.59-0.35-0.78
				c-0.21-0.19-0.44-0.27-0.7-0.25c-0.26,0.02-0.48,0.14-0.67,0.34c-0.19,0.21-0.26,0.56-0.21,1.05l0.04,0.4L9.61,52.86z"/>
			<path class="st1" d="M6.97,48.74c0.7,0.04,1.27-0.1,1.69-0.42C9.08,48,9.3,47.61,9.33,47.14c0.02-0.31-0.05-0.59-0.21-0.83
				c-0.16-0.24-0.44-0.45-0.84-0.63l0.11-0.15c0.47,0.1,0.89,0.33,1.26,0.71c0.37,0.37,0.54,0.82,0.51,1.34
				c-0.03,0.57-0.28,1.04-0.75,1.43c-0.47,0.38-1.08,0.55-1.82,0.51c-0.81-0.05-1.43-0.29-1.86-0.73c-0.43-0.44-0.63-0.98-0.59-1.61
				c0.03-0.53,0.23-0.96,0.6-1.28c0.37-0.32,0.85-0.47,1.44-0.43L6.97,48.74z M6.67,48.72l0.13-2.2c-0.3,0-0.52,0.02-0.65,0.07
				c-0.2,0.08-0.36,0.2-0.48,0.36c-0.12,0.16-0.19,0.34-0.2,0.53c-0.02,0.29,0.08,0.55,0.29,0.79S6.28,48.66,6.67,48.72z"/>
			<path class="st1" d="M6.79,37.92l1.31,0.11l-0.05,0.22c-0.45,0.03-0.74,0.1-0.87,0.2c-0.13,0.11-0.25,0.37-0.35,0.79L6.6,40.22
				l3.21,0.75c0.36,0.08,0.57,0.11,0.65,0.09c0.08-0.02,0.15-0.06,0.22-0.13c0.07-0.07,0.13-0.22,0.19-0.45l0.19,0.04l-0.54,2.31
				l-0.19-0.04c0.07-0.33,0.07-0.56-0.01-0.67c-0.07-0.12-0.31-0.22-0.71-0.32l-2.46-0.57c-0.33-0.08-0.54-0.11-0.64-0.09
				c-0.1,0.02-0.18,0.06-0.24,0.15c-0.06,0.08-0.13,0.25-0.19,0.51L5.9,41.76L6.79,37.92z"/>
			<path class="st1" d="M7.36,37.49L7.3,35.92l0.07-0.19l1.04,0.38c-0.31-0.37-0.5-0.7-0.58-0.99c-0.07-0.29-0.06-0.56,0.03-0.82
				c0.16-0.45,0.47-0.76,0.93-0.93c0.56-0.21,1.19-0.2,1.88,0.05c0.77,0.28,1.33,0.73,1.67,1.35c0.28,0.51,0.32,1.05,0.12,1.6
				c-0.09,0.24-0.2,0.44-0.33,0.59c-0.1,0.11-0.25,0.22-0.45,0.33l1.36,0.49c0.31,0.11,0.51,0.16,0.6,0.15
				c0.1-0.01,0.19-0.05,0.27-0.12c0.08-0.08,0.17-0.23,0.26-0.48l0.18,0.07l-0.84,2.34l-0.18-0.07l0.04-0.12
				c0.07-0.18,0.09-0.34,0.06-0.5c-0.01-0.07-0.05-0.14-0.12-0.21c-0.07-0.06-0.26-0.15-0.59-0.27l-4.23-1.52
				c-0.29-0.1-0.48-0.16-0.57-0.16c-0.09,0-0.16,0.02-0.22,0.06C7.66,37,7.62,37.07,7.58,37.17c-0.03,0.08-0.04,0.19-0.04,0.32
				L7.36,37.49z M8.7,36.21l1.67,0.6c0.36,0.13,0.6,0.2,0.73,0.21c0.21,0.02,0.41-0.03,0.62-0.15c0.21-0.13,0.36-0.32,0.46-0.59
				c0.12-0.33,0.09-0.63-0.1-0.93c-0.24-0.38-0.66-0.68-1.26-0.9c-0.68-0.25-1.26-0.29-1.74-0.12c-0.33,0.12-0.54,0.32-0.65,0.6
				c-0.06,0.16-0.07,0.32-0.05,0.51C8.4,35.58,8.51,35.84,8.7,36.21z"/>
			<path class="st1" d="M13.88,31.12c0.12,0.61,0.17,0.98,0.17,1.11c-0.01,0.21-0.06,0.4-0.15,0.59c-0.15,0.29-0.37,0.48-0.67,0.57
				c-0.3,0.09-0.61,0.05-0.94-0.11c-0.21-0.1-0.36-0.24-0.47-0.41c-0.15-0.23-0.23-0.55-0.26-0.96c-0.03-0.41,0.01-1.04,0.11-1.9
				l-0.17-0.08c-0.42-0.21-0.75-0.29-0.97-0.24c-0.23,0.06-0.4,0.21-0.53,0.47c-0.1,0.19-0.12,0.38-0.08,0.54
				c0.05,0.17,0.14,0.29,0.27,0.36l0.27,0.13c0.14,0.07,0.23,0.16,0.27,0.27c0.04,0.11,0.03,0.23-0.03,0.34
				c-0.06,0.11-0.14,0.19-0.26,0.22c-0.12,0.03-0.24,0.01-0.38-0.06c-0.27-0.13-0.44-0.39-0.53-0.78c-0.09-0.38,0-0.82,0.24-1.31
				c0.19-0.38,0.41-0.65,0.66-0.83c0.19-0.13,0.41-0.19,0.65-0.18c0.16,0.01,0.45,0.12,0.86,0.33l1.44,0.73
				c0.4,0.2,0.66,0.32,0.76,0.35c0.1,0.03,0.17,0.04,0.22,0.02c0.05-0.02,0.08-0.05,0.11-0.1c0.02-0.05,0.04-0.1,0.03-0.15
				c-0.01-0.09-0.06-0.27-0.15-0.55l0.26,0.13c0.29,0.58,0.35,1.03,0.2,1.34c-0.08,0.15-0.19,0.25-0.34,0.28
				C14.34,31.29,14.14,31.24,13.88,31.12z M13.58,30.97l-1.62-0.81c-0.05,0.56-0.07,0.93-0.06,1.1c0.01,0.31,0.07,0.56,0.16,0.74
				c0.1,0.18,0.23,0.31,0.41,0.4c0.22,0.11,0.44,0.14,0.65,0.08c0.21-0.06,0.36-0.17,0.45-0.35C13.7,31.89,13.7,31.51,13.58,30.97z"
				/>
			<path class="st1" d="M11.07,25.32l1.17-1.77l0.26,0.17l-1.17,1.77l1.53,1.01c-0.2-0.56-0.3-0.95-0.27-1.15
				c0.02-0.21,0.08-0.38,0.18-0.54c0.26-0.39,0.65-0.56,1.18-0.51c0.53,0.05,1.17,0.33,1.94,0.84c2.28,1.51,3.04,3.03,2.27,4.56
				l-0.16-0.1c0.21-0.56,0.13-1.1-0.21-1.61s-1.07-1.13-2.17-1.85c-0.79-0.52-1.36-0.83-1.73-0.92c-0.36-0.09-0.63-0.02-0.79,0.23
				c-0.16,0.24-0.14,0.65,0.04,1.23l1.87,1.24c0.38,0.25,0.64,0.37,0.79,0.36c0.15-0.01,0.33-0.13,0.54-0.36l0.16,0.11l-1.28,1.94
				l-0.16-0.11c0.14-0.28,0.18-0.5,0.11-0.65c-0.07-0.15-0.28-0.34-0.64-0.58l-3.68-2.44l-0.43,0.65l-0.26-0.17l0.43-0.65
				c-0.23-0.15-0.39-0.22-0.5-0.2c-0.11,0.01-0.19,0.07-0.25,0.16c-0.05,0.07-0.09,0.19-0.13,0.34l-0.18-0.06l0.32-1.56l0.09-0.14
				L11.07,25.32z"/>
			<path class="st1" d="M19.29,23.22c-0.03,0.62-0.06,0.99-0.09,1.12c-0.05,0.2-0.15,0.38-0.29,0.54c-0.21,0.25-0.47,0.39-0.78,0.4
				s-0.6-0.09-0.88-0.33c-0.18-0.15-0.3-0.32-0.36-0.51c-0.09-0.26-0.1-0.59-0.03-0.99c0.07-0.4,0.25-1.01,0.55-1.83l-0.14-0.12
				c-0.36-0.31-0.66-0.46-0.89-0.46c-0.23,0-0.44,0.11-0.63,0.33c-0.14,0.17-0.21,0.34-0.2,0.51c0.01,0.18,0.07,0.31,0.18,0.41
				l0.24,0.19c0.12,0.1,0.19,0.21,0.2,0.33c0.01,0.12-0.02,0.23-0.11,0.33c-0.08,0.1-0.18,0.15-0.31,0.15
				c-0.12,0-0.24-0.04-0.36-0.14c-0.23-0.19-0.34-0.48-0.33-0.88c0.01-0.39,0.19-0.8,0.54-1.22c0.27-0.32,0.55-0.54,0.83-0.66
				c0.21-0.09,0.44-0.09,0.68-0.02c0.15,0.05,0.41,0.22,0.76,0.52l1.23,1.04c0.35,0.29,0.56,0.47,0.65,0.52
				c0.09,0.05,0.16,0.08,0.21,0.07c0.05-0.01,0.09-0.03,0.13-0.07c0.04-0.04,0.06-0.09,0.07-0.13c0.01-0.08,0.01-0.27-0.02-0.57
				l0.22,0.19c0.15,0.63,0.11,1.08-0.12,1.35c-0.11,0.13-0.24,0.19-0.4,0.2C19.7,23.49,19.51,23.4,19.29,23.22z M19.03,23
				l-1.38-1.17c-0.18,0.53-0.28,0.89-0.32,1.06c-0.06,0.31-0.06,0.56-0.01,0.76c0.05,0.2,0.15,0.36,0.3,0.49
				c0.19,0.16,0.4,0.24,0.62,0.23c0.22-0.01,0.39-0.09,0.52-0.23C18.93,23.93,19.02,23.55,19.03,23z"/>
			<path class="st1" d="M20.29,19.34l1.51-1.39l-0.68-0.74c-0.2-0.22-0.35-0.36-0.43-0.41c-0.08-0.05-0.18-0.07-0.29-0.05
				c-0.11,0.02-0.26,0.11-0.44,0.27l-0.13-0.14l1.69-1.56l0.13,0.14c-0.16,0.15-0.26,0.27-0.3,0.37c-0.04,0.1-0.04,0.2,0,0.29
				c0.04,0.09,0.17,0.26,0.39,0.5l1.71,1.85c0.2,0.22,0.35,0.36,0.43,0.41c0.08,0.05,0.18,0.07,0.3,0.04
				c0.11-0.02,0.26-0.11,0.42-0.27l0.13,0.14l-1.69,1.56l-0.13-0.14c0.21-0.19,0.32-0.36,0.32-0.51c0-0.14-0.14-0.36-0.41-0.66
				l-0.8-0.87l-1.51,1.39l0.8,0.87c0.2,0.22,0.35,0.36,0.43,0.41c0.08,0.05,0.18,0.07,0.3,0.05c0.11-0.02,0.26-0.11,0.42-0.27
				l0.13,0.14l-1.69,1.56l-0.13-0.14c0.23-0.21,0.33-0.38,0.32-0.53c-0.01-0.14-0.15-0.36-0.42-0.64l-1.71-1.85
				c-0.2-0.22-0.35-0.36-0.43-0.41c-0.08-0.05-0.18-0.07-0.3-0.04c-0.11,0.02-0.25,0.11-0.42,0.27l-0.13-0.14l1.69-1.56l0.13,0.14
				c-0.16,0.15-0.26,0.27-0.3,0.37c-0.04,0.1-0.04,0.2,0,0.29c0.04,0.09,0.17,0.26,0.39,0.5L20.29,19.34z"/>
			<path class="st1" d="M26.84,16.48c-0.18,0.59-0.3,0.95-0.37,1.07c-0.1,0.18-0.24,0.33-0.41,0.45c-0.27,0.19-0.55,0.26-0.86,0.2
				c-0.3-0.06-0.56-0.24-0.78-0.54c-0.13-0.19-0.21-0.38-0.22-0.58c-0.02-0.27,0.05-0.6,0.21-0.97c0.16-0.37,0.49-0.92,0.98-1.64
				l-0.11-0.15c-0.28-0.39-0.53-0.61-0.75-0.66c-0.23-0.06-0.45,0-0.69,0.17c-0.18,0.13-0.28,0.28-0.32,0.45
				c-0.04,0.17-0.01,0.32,0.08,0.44l0.18,0.24c0.09,0.13,0.13,0.25,0.12,0.37c-0.02,0.12-0.08,0.21-0.18,0.29
				c-0.1,0.07-0.22,0.1-0.33,0.07c-0.12-0.03-0.22-0.1-0.31-0.23c-0.17-0.24-0.21-0.55-0.11-0.93c0.1-0.38,0.38-0.73,0.82-1.05
				c0.34-0.25,0.67-0.39,0.97-0.43c0.23-0.03,0.45,0.02,0.66,0.15c0.14,0.08,0.34,0.31,0.61,0.69l0.94,1.31
				c0.26,0.37,0.43,0.59,0.51,0.66c0.07,0.07,0.14,0.11,0.19,0.12c0.05,0.01,0.1-0.01,0.14-0.04c0.04-0.03,0.08-0.07,0.1-0.11
				c0.03-0.08,0.07-0.26,0.12-0.55l0.17,0.24c-0.01,0.65-0.16,1.07-0.45,1.28c-0.14,0.1-0.28,0.13-0.43,0.09
				C27.16,16.84,27,16.71,26.84,16.48z M26.64,16.21l-1.05-1.47c-0.3,0.47-0.49,0.79-0.57,0.95c-0.13,0.28-0.2,0.53-0.2,0.73
				c0,0.2,0.06,0.39,0.17,0.55c0.15,0.2,0.33,0.33,0.54,0.37c0.22,0.05,0.4,0.01,0.56-0.1C26.31,17.08,26.49,16.74,26.64,16.21z"/>
			<path class="st1" d="M31.88,16.08l-0.09-0.2c0.23-0.33,0.36-0.59,0.39-0.78c0.03-0.19,0-0.38-0.09-0.57
				c-0.04-0.09-0.09-0.15-0.14-0.17c-0.06-0.03-0.1-0.03-0.14-0.01c-0.03,0.01-0.08,0.05-0.13,0.11c-0.06,0.06-0.12,0.1-0.19,0.14
				c-0.13,0.06-0.27,0.07-0.4,0.02c-0.14-0.05-0.24-0.14-0.3-0.27c-0.07-0.15-0.07-0.31-0.01-0.48c0.07-0.17,0.19-0.3,0.36-0.38
				c0.21-0.1,0.44-0.1,0.69,0c0.25,0.1,0.44,0.28,0.57,0.55c0.16,0.33,0.19,0.68,0.11,1.05C32.42,15.45,32.21,15.78,31.88,16.08z
				 M34.12,15.01l-0.09-0.2c0.2-0.27,0.33-0.51,0.37-0.73c0.04-0.22,0.02-0.41-0.06-0.6c-0.05-0.11-0.1-0.18-0.16-0.21
				c-0.05-0.03-0.09-0.03-0.13-0.01c-0.04,0.02-0.09,0.06-0.15,0.12c-0.06,0.06-0.12,0.1-0.17,0.13c-0.13,0.06-0.26,0.07-0.4,0.01
				c-0.14-0.05-0.24-0.14-0.31-0.28c-0.07-0.15-0.08-0.31-0.01-0.47c0.06-0.16,0.18-0.29,0.35-0.37c0.21-0.1,0.45-0.1,0.7,0
				c0.26,0.1,0.45,0.29,0.57,0.55c0.15,0.31,0.18,0.65,0.11,1.02C34.66,14.35,34.45,14.7,34.12,15.01z"/>
			<path class="st1" d="M37.91,4.86l-3.12,0.95l1.57,5.14c0.14,0.44,0.28,0.71,0.43,0.79c0.15,0.08,0.44,0.07,0.86-0.05l0.06,0.18
				l-2.9,0.88l-0.06-0.18c0.41-0.14,0.66-0.29,0.74-0.44c0.08-0.15,0.05-0.45-0.08-0.9l-1.3-4.28c-0.14-0.44-0.28-0.71-0.43-0.79
				c-0.15-0.08-0.44-0.07-0.86,0.05l-0.06-0.18l6.97-2.13l0.06,0.18c-0.41,0.14-0.66,0.29-0.74,0.44c-0.08,0.15-0.05,0.45,0.08,0.9
				l1.3,4.28c0.14,0.44,0.28,0.71,0.43,0.79c0.15,0.08,0.44,0.07,0.86-0.05l0.06,0.18l-2.89,0.88l-0.06-0.18
				c0.41-0.14,0.65-0.29,0.73-0.44c0.08-0.15,0.05-0.45-0.08-0.9L37.91,4.86z"/>
			<path class="st1" d="M41.13,6.01l2.19-0.31l0.03,0.19L43.24,5.9c-0.15,0.02-0.27,0.07-0.33,0.15c-0.07,0.08-0.09,0.17-0.08,0.27
				c0.02,0.13,0.1,0.31,0.25,0.53l1.48,2.21l0.69-2.75c0.04-0.15,0.05-0.29,0.03-0.43c-0.01-0.06-0.03-0.11-0.06-0.13
				c-0.03-0.03-0.08-0.06-0.14-0.07c-0.06-0.01-0.17-0.01-0.31,0.01L44.73,5.5l1.53-0.22l0.03,0.19c-0.12,0.03-0.22,0.07-0.28,0.12
				c-0.06,0.05-0.13,0.14-0.19,0.26c-0.02,0.05-0.06,0.19-0.12,0.42l-1.26,4.97c-0.12,0.48-0.31,0.86-0.58,1.14
				c-0.27,0.28-0.54,0.43-0.82,0.47c-0.2,0.03-0.38-0.01-0.52-0.1c-0.15-0.1-0.23-0.22-0.25-0.37c-0.02-0.14,0.01-0.27,0.09-0.37
				c0.08-0.1,0.21-0.16,0.37-0.19c0.11-0.02,0.27,0,0.48,0.05c0.14,0.03,0.23,0.05,0.27,0.04c0.1-0.01,0.21-0.08,0.31-0.21
				c0.11-0.12,0.2-0.35,0.28-0.67l0.22-0.86L42.1,6.86c-0.07-0.1-0.17-0.22-0.3-0.36c-0.1-0.11-0.18-0.18-0.24-0.21
				c-0.09-0.04-0.22-0.07-0.4-0.09L41.13,6.01z"/>
			<path class="st1" d="M46.94,5.26l4.11-0.09l0.24,1.28l-0.23,0.01C51.01,6.2,50.93,6,50.83,5.86c-0.1-0.14-0.21-0.23-0.34-0.27
				c-0.13-0.04-0.34-0.06-0.64-0.05l-0.42,0.01l0.07,3.3c0.01,0.35,0.03,0.58,0.08,0.67c0.05,0.09,0.12,0.16,0.21,0.18
				c0.1,0.03,0.32,0.04,0.67,0.05l0,0.19l-2.58,0.06l0-0.19c0.33-0.01,0.54-0.07,0.64-0.17c0.09-0.1,0.13-0.36,0.13-0.77l-0.07-3.3
				l-0.43,0.01c-0.3,0.01-0.5,0.03-0.61,0.07c-0.11,0.04-0.21,0.13-0.3,0.27c-0.1,0.14-0.17,0.35-0.24,0.64l-0.23,0.01L46.94,5.26z"
				/>
			<path class="st1" d="M52.64,7.06c-0.07,0.7,0.06,1.27,0.36,1.7c0.31,0.43,0.7,0.67,1.16,0.71c0.31,0.03,0.59-0.03,0.83-0.18
				c0.24-0.15,0.46-0.42,0.65-0.82l0.15,0.12c-0.11,0.47-0.36,0.88-0.75,1.23c-0.38,0.36-0.84,0.51-1.36,0.46
				c-0.57-0.05-1.04-0.32-1.4-0.79C51.93,9,51.78,8.39,51.84,7.64c0.07-0.81,0.34-1.42,0.79-1.84c0.46-0.42,1-0.6,1.62-0.54
				c0.53,0.05,0.95,0.26,1.26,0.64c0.31,0.38,0.44,0.86,0.39,1.45L52.64,7.06z M52.66,6.76l2.19,0.2c0.01-0.3-0.01-0.52-0.05-0.65
				c-0.07-0.2-0.18-0.36-0.34-0.49c-0.16-0.13-0.33-0.2-0.52-0.21c-0.29-0.03-0.55,0.06-0.8,0.26C52.9,6.07,52.74,6.37,52.66,6.76z"
				/>
			<path class="st1" d="M59.54,8.51c0.81,0.35,1.16,0.84,1.03,1.46c-0.09,0.42-0.33,0.7-0.73,0.84c-0.4,0.14-0.91,0.14-1.55,0.01
				l-2.3-0.48l0.04-0.19c0.3,0.06,0.5,0.05,0.61-0.05c0.1-0.1,0.19-0.33,0.27-0.71l0.51-2.47c0.08-0.37,0.1-0.58,0.08-0.66
				c-0.02-0.07-0.07-0.14-0.13-0.21c-0.07-0.07-0.22-0.13-0.45-0.18l0.04-0.19l2.14,0.45c0.41,0.09,0.74,0.19,0.98,0.31
				c0.24,0.12,0.43,0.29,0.55,0.51c0.12,0.22,0.16,0.47,0.1,0.74C60.63,8.22,60.23,8.5,59.54,8.51z M57.61,10.25
				c0.16,0.09,0.35,0.16,0.59,0.21c0.4,0.08,0.72,0.06,0.95-0.08c0.23-0.14,0.38-0.34,0.44-0.62c0.06-0.31-0.01-0.58-0.23-0.8
				c-0.22-0.22-0.55-0.38-1-0.47c-0.11-0.02-0.23-0.04-0.36-0.07L57.61,10.25z M58.06,8.09c0.15,0.03,0.24,0.05,0.27,0.06
				c0.46,0.1,0.82,0.08,1.06-0.06c0.24-0.13,0.39-0.33,0.44-0.58c0.06-0.29,0-0.53-0.18-0.71c-0.18-0.18-0.5-0.31-0.96-0.41
				l-0.26-0.06L58.06,8.09z"/>
			<path class="st1" d="M62.65,10.45l2.72-1.57c0.08-0.25,0.09-0.45,0.04-0.57c-0.05-0.13-0.19-0.23-0.4-0.31l0.06-0.19l2.09,0.73
				L67.1,8.72c-0.22-0.08-0.37-0.11-0.46-0.09c-0.09,0.02-0.17,0.05-0.23,0.1c-0.07,0.05-0.16,0.26-0.29,0.62l-0.83,2.38
				c-0.12,0.35-0.17,0.56-0.16,0.64c0.01,0.08,0.05,0.16,0.11,0.24c0.06,0.08,0.2,0.16,0.43,0.24l-0.06,0.18l-2.17-0.75l0.06-0.18
				c0.27,0.09,0.47,0.11,0.6,0.04c0.13-0.07,0.26-0.29,0.39-0.68l0.73-2.11l-2.72,1.58c-0.09,0.28-0.12,0.48-0.08,0.61
				s0.17,0.24,0.41,0.32l-0.06,0.18l-2.07-0.72l0.06-0.18c0.29,0.1,0.5,0.11,0.61,0.03c0.12-0.08,0.24-0.3,0.37-0.67l0.83-2.38
				c0.12-0.35,0.18-0.56,0.16-0.64c-0.01-0.08-0.05-0.15-0.11-0.23c-0.06-0.08-0.2-0.16-0.43-0.24l0.06-0.19l2.17,0.75l-0.06,0.19
				c-0.22-0.08-0.37-0.11-0.46-0.09c-0.09,0.02-0.17,0.05-0.23,0.1c-0.07,0.05-0.16,0.26-0.29,0.62L62.65,10.45z"/>
			<path class="st1" d="M69.2,13.45l2.95-2.42l1.42,0.75l-0.09,0.17c-0.21-0.11-0.36-0.16-0.45-0.16c-0.09,0.01-0.17,0.03-0.24,0.07
				c-0.07,0.04-0.2,0.23-0.37,0.57l-1.17,2.23c-0.15,0.29-0.24,0.49-0.25,0.59c-0.02,0.1,0.01,0.19,0.08,0.28
				c0.07,0.09,0.2,0.18,0.38,0.28l-0.09,0.17l-2.03-1.07l0.09-0.17c0.25,0.13,0.44,0.17,0.58,0.13c0.13-0.05,0.3-0.25,0.48-0.61
				l1.33-2.53l-3.34,2.74l-0.16-0.08l0.33-4.31l-1.33,2.53c-0.15,0.29-0.24,0.49-0.25,0.59c-0.01,0.1,0.01,0.2,0.08,0.28
				c0.07,0.09,0.19,0.18,0.38,0.28l-0.09,0.17l-1.61-0.84l0.09-0.17c0.27,0.14,0.47,0.19,0.6,0.13c0.13-0.06,0.28-0.26,0.47-0.61
				l1.17-2.23c0.17-0.33,0.26-0.53,0.25-0.61c0-0.08-0.03-0.16-0.07-0.24c-0.05-0.08-0.18-0.18-0.39-0.3l0.09-0.17l1.48,0.78
				L69.2,13.45z"/>
			<path class="st1" d="M74.14,17.19c-0.62,0.02-0.99,0.02-1.13,0c-0.2-0.04-0.39-0.12-0.56-0.24c-0.27-0.19-0.42-0.44-0.47-0.75
				c-0.04-0.31,0.04-0.61,0.25-0.91c0.13-0.19,0.29-0.32,0.48-0.4c0.25-0.11,0.58-0.15,0.99-0.11c0.41,0.03,1.03,0.17,1.87,0.4
				l0.11-0.15c0.27-0.39,0.4-0.69,0.38-0.93c-0.02-0.23-0.15-0.43-0.38-0.6c-0.18-0.13-0.35-0.18-0.52-0.16
				c-0.18,0.02-0.31,0.09-0.4,0.22l-0.17,0.25c-0.09,0.13-0.2,0.21-0.31,0.23c-0.12,0.02-0.23,0-0.34-0.08
				c-0.1-0.07-0.16-0.17-0.18-0.29c-0.01-0.12,0.02-0.24,0.11-0.37c0.17-0.24,0.45-0.38,0.85-0.4c0.39-0.03,0.81,0.12,1.26,0.44
				c0.34,0.24,0.58,0.5,0.72,0.78c0.1,0.21,0.13,0.43,0.08,0.67c-0.04,0.16-0.19,0.42-0.45,0.8l-0.94,1.31
				c-0.26,0.37-0.42,0.6-0.46,0.69c-0.05,0.09-0.06,0.17-0.05,0.22c0.01,0.05,0.04,0.09,0.08,0.12c0.04,0.03,0.09,0.05,0.14,0.05
				c0.09,0.01,0.27-0.02,0.56-0.06l-0.17,0.24c-0.62,0.2-1.07,0.19-1.36-0.01c-0.14-0.1-0.21-0.22-0.23-0.38
				C73.9,17.62,73.97,17.42,74.14,17.19z M74.33,16.92l1.05-1.48c-0.55-0.13-0.91-0.21-1.08-0.23c-0.31-0.03-0.56-0.02-0.75,0.05
				c-0.19,0.07-0.35,0.18-0.46,0.34c-0.14,0.2-0.2,0.41-0.18,0.63c0.03,0.22,0.12,0.39,0.28,0.5C73.4,16.89,73.78,16.95,74.33,16.92
				z"/>
			<path class="st1" d="M79.23,20.52l3.14-0.16c0.19-0.19,0.29-0.35,0.3-0.49c0.01-0.14-0.06-0.29-0.22-0.46l0.14-0.14l1.53,1.59
				L83.98,21c-0.16-0.17-0.29-0.26-0.37-0.29c-0.09-0.03-0.17-0.03-0.25-0.01c-0.08,0.02-0.26,0.15-0.53,0.42l-1.82,1.75
				c-0.26,0.25-0.41,0.42-0.43,0.5c-0.02,0.08-0.03,0.16-0.01,0.26c0.02,0.1,0.11,0.23,0.28,0.41l-0.14,0.13L79.1,22.5l0.14-0.13
				c0.2,0.21,0.37,0.31,0.51,0.31c0.14,0,0.36-0.15,0.65-0.43l1.61-1.55l-3.14,0.17c-0.21,0.21-0.32,0.38-0.35,0.51
				c-0.03,0.13,0.05,0.29,0.22,0.47l-0.14,0.13l-1.52-1.58l0.14-0.13c0.21,0.22,0.39,0.33,0.53,0.31c0.14-0.02,0.35-0.16,0.63-0.43
				l1.82-1.75c0.27-0.26,0.41-0.42,0.43-0.5c0.02-0.07,0.03-0.16,0.01-0.25c-0.02-0.09-0.11-0.23-0.28-0.41l0.14-0.14l1.59,1.66
				l-0.14,0.14c-0.16-0.17-0.29-0.26-0.37-0.29c-0.09-0.03-0.17-0.03-0.25-0.01c-0.08,0.02-0.26,0.15-0.53,0.42L79.23,20.52z"/>
			<path class="st1" d="M84.75,26.6c-0.58,0.27-1.11,0.36-1.61,0.26c-0.49-0.1-0.88-0.33-1.15-0.69c-0.32-0.43-0.42-0.94-0.3-1.54
				c0.12-0.59,0.49-1.12,1.11-1.58c0.6-0.45,1.22-0.63,1.86-0.56s1.15,0.36,1.52,0.86c0.28,0.37,0.41,0.76,0.39,1.14
				c-0.02,0.39-0.13,0.66-0.35,0.82c-0.11,0.08-0.22,0.11-0.33,0.09c-0.12-0.02-0.22-0.09-0.31-0.21c-0.12-0.16-0.16-0.33-0.12-0.49
				c0.02-0.09,0.11-0.2,0.26-0.34c0.15-0.14,0.23-0.29,0.25-0.45c0.01-0.16-0.05-0.32-0.18-0.5c-0.21-0.28-0.48-0.42-0.81-0.44
				c-0.44-0.02-0.88,0.13-1.33,0.47c-0.45,0.34-0.77,0.75-0.95,1.23c-0.18,0.48-0.13,0.91,0.15,1.29c0.2,0.27,0.48,0.45,0.82,0.52
				c0.24,0.06,0.58,0.03,1.03-0.07L84.75,26.6z"/>
			<path class="st1" d="M87.64,25.63l2.08,3.55L88.71,30l-0.12-0.2c0.2-0.17,0.34-0.33,0.41-0.48c0.07-0.16,0.1-0.3,0.07-0.43
				s-0.11-0.33-0.26-0.58l-0.21-0.36l-2.85,1.67c-0.3,0.18-0.49,0.31-0.55,0.4c-0.06,0.09-0.08,0.18-0.06,0.28
				c0.02,0.1,0.12,0.3,0.28,0.6l-0.17,0.1l-1.31-2.23l0.17-0.1c0.17,0.28,0.33,0.44,0.46,0.47c0.13,0.03,0.38-0.06,0.73-0.26
				l2.85-1.67l-0.21-0.37c-0.15-0.26-0.27-0.42-0.35-0.5c-0.09-0.07-0.21-0.12-0.38-0.14c-0.17-0.02-0.39,0.02-0.68,0.1l-0.12-0.2
				L87.64,25.63z"/>
			<path class="st1" d="M87.75,32.7l2.99,0.95c0.24-0.11,0.39-0.23,0.45-0.36c0.06-0.13,0.04-0.3-0.04-0.51l0.18-0.08l0.87,2.03
				l-0.18,0.08c-0.09-0.21-0.17-0.35-0.25-0.4c-0.07-0.05-0.15-0.09-0.23-0.1c-0.08-0.01-0.3,0.05-0.65,0.2l-2.32,0.99
				c-0.34,0.14-0.53,0.25-0.58,0.31c-0.05,0.06-0.08,0.14-0.1,0.24c-0.02,0.1,0.02,0.25,0.12,0.48l-0.18,0.08l-0.91-2.11l0.18-0.08
				c0.11,0.26,0.24,0.42,0.37,0.47c0.14,0.05,0.39-0.01,0.76-0.17l2.05-0.88l-3-0.95c-0.27,0.12-0.44,0.24-0.51,0.35
				c-0.07,0.11-0.06,0.29,0.04,0.52l-0.18,0.08l-0.87-2.02l0.18-0.08c0.12,0.28,0.25,0.44,0.39,0.48c0.14,0.04,0.39-0.02,0.74-0.18
				l2.32-0.99c0.34-0.15,0.53-0.25,0.58-0.31c0.05-0.06,0.08-0.14,0.1-0.23c0.02-0.09-0.02-0.25-0.12-0.48l0.18-0.08l0.91,2.11
				l-0.18,0.08c-0.09-0.21-0.17-0.35-0.25-0.4c-0.07-0.05-0.15-0.09-0.23-0.1s-0.3,0.05-0.65,0.2L87.75,32.7z"/>
			<path class="st1" d="M90.88,37.67l0.55,1.98l0.97-0.27c0.29-0.08,0.48-0.14,0.56-0.19c0.08-0.05,0.14-0.13,0.18-0.23
				c0.04-0.11,0.02-0.28-0.04-0.51l0.19-0.05l0.61,2.22l-0.19,0.05c-0.06-0.21-0.12-0.35-0.19-0.43c-0.07-0.08-0.16-0.13-0.26-0.14
				c-0.1-0.01-0.31,0.03-0.63,0.12l-2.43,0.67c-0.29,0.08-0.48,0.15-0.56,0.2c-0.09,0.05-0.15,0.13-0.18,0.25
				c-0.03,0.11-0.02,0.28,0.04,0.5l-0.19,0.05l-0.61-2.22l0.19-0.05c0.08,0.28,0.18,0.45,0.31,0.51c0.13,0.07,0.39,0.04,0.78-0.06
				l1.14-0.31l-0.55-1.98l-1.14,0.31c-0.29,0.08-0.48,0.15-0.56,0.2c-0.09,0.05-0.15,0.13-0.18,0.25c-0.03,0.11-0.02,0.28,0.04,0.5
				l-0.19,0.05l-0.61-2.22l0.19-0.05c0.08,0.3,0.19,0.47,0.32,0.53c0.13,0.05,0.39,0.03,0.76-0.08l2.43-0.67
				c0.29-0.08,0.48-0.15,0.56-0.2c0.09-0.05,0.14-0.13,0.17-0.24c0.03-0.11,0.01-0.28-0.05-0.5l0.19-0.05l0.61,2.22l-0.19,0.05
				c-0.06-0.21-0.12-0.35-0.19-0.43c-0.07-0.08-0.16-0.13-0.26-0.14c-0.1-0.01-0.31,0.03-0.63,0.12L90.88,37.67z"/>
			<path class="st1" d="M92.39,42.59c-0.7,0.1-1.22,0.35-1.57,0.75c-0.35,0.4-0.49,0.83-0.42,1.29c0.04,0.31,0.17,0.56,0.37,0.77
				c0.2,0.2,0.52,0.35,0.95,0.45l-0.08,0.17c-0.48,0-0.94-0.15-1.37-0.44c-0.44-0.29-0.69-0.7-0.77-1.22
				c-0.08-0.56,0.07-1.08,0.45-1.55c0.38-0.47,0.94-0.75,1.69-0.86c0.8-0.12,1.46,0,1.97,0.35c0.51,0.35,0.81,0.83,0.9,1.46
				c0.08,0.53-0.03,0.99-0.33,1.37c-0.3,0.39-0.74,0.63-1.32,0.71L92.39,42.59z M92.68,42.55L93,44.73c0.3-0.06,0.51-0.13,0.62-0.2
				c0.18-0.11,0.31-0.26,0.4-0.45c0.08-0.19,0.11-0.37,0.09-0.56c-0.04-0.28-0.19-0.52-0.44-0.71
				C93.41,42.62,93.08,42.53,92.68,42.55z"/>
			<path class="st1" d="M94.49,46.83l0.22-0.01c0.21,0.34,0.39,0.57,0.56,0.67c0.16,0.1,0.35,0.15,0.56,0.15
				c0.1,0,0.17-0.02,0.22-0.06c0.05-0.04,0.07-0.08,0.07-0.13c0-0.03-0.02-0.09-0.05-0.16c-0.03-0.08-0.05-0.15-0.05-0.23
				c0-0.15,0.04-0.27,0.14-0.38c0.1-0.11,0.22-0.16,0.37-0.17c0.17-0.01,0.31,0.06,0.44,0.19c0.13,0.13,0.2,0.29,0.2,0.48
				c0.01,0.23-0.08,0.44-0.28,0.63c-0.19,0.19-0.44,0.29-0.74,0.3c-0.36,0.01-0.7-0.09-1.01-0.32
				C94.85,47.57,94.62,47.24,94.49,46.83z M94.56,49.3l0.22-0.01c0.17,0.3,0.34,0.51,0.52,0.64c0.18,0.13,0.37,0.19,0.57,0.18
				c0.12,0,0.21-0.02,0.25-0.06c0.04-0.04,0.07-0.07,0.06-0.12c0-0.04-0.02-0.11-0.05-0.18c-0.03-0.08-0.05-0.15-0.05-0.21
				c0-0.14,0.05-0.27,0.15-0.38c0.1-0.11,0.23-0.17,0.38-0.17c0.17-0.01,0.31,0.05,0.44,0.18c0.13,0.12,0.19,0.28,0.2,0.47
				c0.01,0.24-0.09,0.45-0.28,0.64c-0.2,0.19-0.44,0.29-0.74,0.3c-0.35,0.01-0.67-0.09-0.98-0.31
				C94.95,50.06,94.72,49.73,94.56,49.3z"/>
			<path class="st1" d="M92.76,58.86c-0.19,0.46-0.41,0.79-0.68,0.99c-0.37,0.28-0.78,0.38-1.24,0.3c-0.34-0.06-0.66-0.23-0.93-0.5
				c-0.28-0.27-0.46-0.61-0.53-1.02c-0.08-0.41-0.05-1,0.08-1.78l0.57-3.27l0.19,0.03l-0.05,0.26c-0.05,0.29,0.01,0.51,0.17,0.67
				c0.11,0.1,0.35,0.18,0.74,0.25l4.48,0.78c0.43,0.07,0.71,0.07,0.84-0.01c0.17-0.11,0.28-0.29,0.33-0.55l0.05-0.26l0.19,0.03
				l-0.52,3c-0.1,0.56-0.22,1-0.36,1.32c-0.21,0.49-0.5,0.84-0.85,1.06c-0.36,0.22-0.74,0.29-1.15,0.22
				c-0.35-0.06-0.64-0.22-0.88-0.48C92.97,59.64,92.82,59.29,92.76,58.86z M90.19,55.65c-0.16,0.38-0.27,0.76-0.34,1.15
				c-0.11,0.62-0.05,1.11,0.17,1.48c0.22,0.37,0.54,0.59,0.95,0.66c0.27,0.05,0.54,0.02,0.82-0.09c0.27-0.1,0.51-0.31,0.71-0.61
				c0.2-0.31,0.34-0.7,0.43-1.19c0.04-0.21,0.06-0.39,0.08-0.54c0.02-0.15,0.03-0.27,0.03-0.37L90.19,55.65z M93.5,56.23
				c-0.05,0.12-0.09,0.26-0.13,0.42c-0.04,0.16-0.08,0.34-0.11,0.53c-0.09,0.5-0.1,0.88-0.03,1.15c0.06,0.27,0.2,0.49,0.39,0.66
				c0.2,0.17,0.43,0.28,0.69,0.33c0.41,0.07,0.78-0.04,1.12-0.32c0.34-0.28,0.57-0.74,0.68-1.37c0.06-0.34,0.07-0.65,0.05-0.94
				L93.5,56.23z"/>
			<path class="st1" d="M88.54,63.23c-0.21-0.58-0.32-0.94-0.34-1.08c-0.02-0.2,0-0.41,0.06-0.61c0.1-0.31,0.29-0.54,0.57-0.67
				c0.28-0.13,0.59-0.14,0.94-0.03c0.22,0.07,0.4,0.18,0.52,0.33c0.18,0.21,0.31,0.51,0.4,0.91s0.15,1.03,0.18,1.9l0.18,0.06
				c0.45,0.15,0.78,0.17,1,0.09c0.21-0.09,0.37-0.27,0.45-0.54c0.07-0.21,0.06-0.39-0.01-0.55c-0.07-0.16-0.18-0.27-0.32-0.31
				l-0.29-0.08c-0.15-0.05-0.26-0.13-0.31-0.23c-0.06-0.1-0.07-0.22-0.03-0.34c0.04-0.12,0.11-0.21,0.23-0.26
				c0.11-0.05,0.24-0.05,0.39,0c0.28,0.09,0.5,0.32,0.64,0.69c0.14,0.37,0.13,0.81-0.04,1.33c-0.13,0.4-0.3,0.71-0.52,0.92
				c-0.17,0.16-0.37,0.25-0.62,0.27c-0.16,0.01-0.46-0.05-0.9-0.19l-1.53-0.5c-0.43-0.14-0.7-0.22-0.8-0.23
				c-0.1-0.01-0.18-0.01-0.22,0.02c-0.05,0.03-0.08,0.07-0.09,0.11c-0.02,0.05-0.02,0.1-0.01,0.15c0.02,0.08,0.1,0.26,0.23,0.52
				l-0.28-0.09c-0.37-0.53-0.51-0.96-0.4-1.3c0.05-0.16,0.15-0.27,0.29-0.33C88.07,63.13,88.27,63.14,88.54,63.23z M88.86,63.33
				l1.72,0.56c-0.04-0.56-0.07-0.93-0.11-1.1c-0.06-0.31-0.15-0.54-0.27-0.7c-0.12-0.16-0.28-0.28-0.46-0.34
				c-0.24-0.08-0.46-0.07-0.66,0.02c-0.2,0.09-0.33,0.23-0.39,0.41C88.61,62.43,88.67,62.82,88.86,63.33z"/>
			<path class="st1" d="M89.31,71.58l-0.18-0.09c0.15-0.31,0.23-0.51,0.23-0.6c0-0.09-0.02-0.17-0.05-0.24
				c-0.03-0.08-0.23-0.2-0.59-0.38l-0.9-0.45l-0.25,0.53c-0.63,1.26-1.34,1.7-2.12,1.31c-0.36-0.18-0.58-0.48-0.64-0.89
				c-0.07-0.42,0.05-0.91,0.34-1.5l1.02-2.04l0.17,0.09c-0.13,0.26-0.17,0.45-0.12,0.59c0.05,0.13,0.26,0.29,0.62,0.47l2.95,1.48
				l0.71-1.43l-1.83-0.91c-0.61-0.31-1.04-0.56-1.28-0.77c-0.24-0.2-0.39-0.44-0.44-0.71c-0.06-0.27-0.01-0.54,0.13-0.82
				c0.1-0.21,0.24-0.36,0.41-0.45c0.17-0.1,0.34-0.1,0.49-0.03c0.11,0.06,0.18,0.14,0.21,0.26s0.01,0.22-0.04,0.32
				c-0.05,0.11-0.18,0.2-0.38,0.29c-0.19,0.08-0.3,0.17-0.34,0.25c-0.08,0.17-0.04,0.35,0.12,0.53c0.17,0.18,0.53,0.42,1.1,0.7
				l1.05,0.52c0.46,0.23,0.78,0.34,0.95,0.33c0.17-0.01,0.33-0.15,0.47-0.42l0.18,0.09L89.31,71.58z M85.83,68.83
				c-0.13,0.15-0.23,0.3-0.31,0.46c-0.15,0.31-0.2,0.6-0.13,0.87c0.07,0.27,0.23,0.47,0.48,0.6c0.59,0.3,1.1,0.03,1.51-0.79
				c0.04-0.07,0.08-0.17,0.14-0.3L85.83,68.83z"/>
			<path class="st1" d="M85.92,73.71c-0.58-0.41-1.13-0.59-1.65-0.53c-0.53,0.05-0.92,0.27-1.19,0.65
				c-0.18,0.25-0.26,0.53-0.26,0.81c0.01,0.29,0.14,0.61,0.39,0.98l-0.18,0.07c-0.35-0.33-0.58-0.75-0.7-1.26
				c-0.12-0.51-0.03-0.98,0.28-1.41c0.33-0.47,0.79-0.74,1.39-0.82c0.6-0.08,1.2,0.1,1.82,0.53c0.67,0.47,1.06,1,1.2,1.6
				c0.13,0.6,0.02,1.16-0.34,1.68c-0.31,0.44-0.7,0.69-1.19,0.77c-0.48,0.08-0.97-0.05-1.45-0.39L85.92,73.71z M86.17,73.88
				l-1.26,1.8c0.26,0.16,0.46,0.25,0.59,0.28c0.21,0.04,0.41,0.02,0.6-0.05c0.19-0.08,0.34-0.19,0.44-0.34
				c0.17-0.23,0.22-0.51,0.17-0.82C86.65,74.42,86.47,74.14,86.17,73.88z"/>
			<path class="st1" d="M81.21,78.96c-0.71,0.53-1.3,0.58-1.78,0.16c-0.32-0.29-0.44-0.64-0.36-1.05c0.08-0.41,0.34-0.86,0.77-1.34
				l1.56-1.75l0.14,0.13c-0.2,0.23-0.29,0.41-0.26,0.55c0.03,0.14,0.19,0.33,0.48,0.59l1.88,1.68c0.28,0.25,0.45,0.38,0.53,0.4
				c0.07,0.02,0.16,0.01,0.25-0.01c0.09-0.02,0.22-0.12,0.38-0.3l0.15,0.13l-1.46,1.63c-0.28,0.31-0.53,0.55-0.76,0.7
				c-0.22,0.15-0.46,0.22-0.72,0.22c-0.26,0-0.49-0.1-0.69-0.28C80.92,80.05,80.88,79.57,81.21,78.96z M80.67,76.42
				c-0.16,0.09-0.31,0.23-0.47,0.41c-0.27,0.31-0.41,0.6-0.41,0.87c0,0.27,0.11,0.5,0.32,0.69c0.24,0.21,0.51,0.28,0.8,0.2
				c0.3-0.08,0.6-0.29,0.91-0.64c0.08-0.09,0.16-0.18,0.24-0.28L80.67,76.42z M82.32,77.89c-0.1,0.11-0.17,0.18-0.19,0.2
				c-0.32,0.35-0.48,0.67-0.48,0.95c0,0.28,0.09,0.5,0.28,0.68c0.22,0.2,0.46,0.27,0.7,0.2c0.24-0.07,0.52-0.28,0.83-0.63l0.18-0.2
				L82.32,77.89z"/>
			<path class="st1" d="M79.67,83.77c-0.54,0.48-1.15,0.65-1.84,0.53c-0.59-0.11-1.08-0.39-1.48-0.84
				c-0.28-0.32-0.49-0.71-0.62-1.17c-0.13-0.46-0.14-0.89-0.02-1.3c0.12-0.4,0.35-0.75,0.68-1.04c0.54-0.47,1.15-0.63,1.85-0.48
				c0.59,0.13,1.08,0.41,1.47,0.86c0.29,0.33,0.49,0.72,0.62,1.19c0.12,0.47,0.12,0.89-0.01,1.28
				C80.18,83.18,79.97,83.51,79.67,83.77z M79.57,83.41c0.14-0.12,0.24-0.28,0.31-0.49c0.07-0.2,0.05-0.45-0.04-0.73
				c-0.09-0.28-0.28-0.58-0.57-0.9c-0.46-0.52-0.95-0.88-1.49-1.07c-0.54-0.19-0.98-0.14-1.31,0.15c-0.25,0.22-0.37,0.51-0.35,0.86
				c0.02,0.35,0.25,0.78,0.7,1.29c0.56,0.63,1.13,1.01,1.73,1.14C78.94,83.74,79.28,83.66,79.57,83.41z"/>
		</g>
	</g>
	<path class="st1" d="M81.36,49.99c0-2.51,0.77-4.78,1.18-5.62l0.25-0.52l-0.99,0.52c-1.87,0.98-3.81,2-6.04,2.43
		c-1.64,0.38-8.74,0.38-15.61,0.38c-2.47,0-5.03,0-7.33,0.02c0.02-2.31,0.02-4.88,0.02-7.36c0-6.86,0-13.95,0.38-15.59
		c0.43-2.23,1.45-4.19,2.44-6.08l0.5-0.96l-0.52,0.25c-0.86,0.41-3.13,1.19-5.62,1.19c-2.5,0-4.78-0.78-5.64-1.19l-0.08-0.04
		l-0.26,0.13l0.32,0.62c0.99,1.89,2.02,3.84,2.44,6.08c0.38,1.64,0.38,8.74,0.38,15.61c0,2.47,0,5.03,0.02,7.33
		c-2.3-0.02-4.85-0.02-7.32-0.02c-6.87,0-13.98,0-15.62-0.38c-2.23-0.43-4.19-1.45-6.07-2.44l-0.96-0.5l0.25,0.52
		c0.41,0.85,1.19,3.13,1.19,5.62c0,2.5-0.78,4.78-1.19,5.64l-0.25,0.52l0.96-0.5c1.89-0.99,3.84-2.02,6.08-2.44
		c1.63-0.38,8.73-0.38,15.6-0.38c2.48,0,5.03,0,7.34-0.02c-0.02,2.3-0.02,4.86-0.02,7.33c0,6.87,0,13.98-0.38,15.62
		c-0.43,2.24-1.45,4.19-2.44,6.08l-0.5,0.96l0.52-0.25c0.85-0.41,3.13-1.19,5.64-1.19c2.49,0,4.77,0.78,5.62,1.19l0.52,0.25
		l-0.5-0.96c-0.99-1.89-2.02-3.84-2.44-6.08c-0.38-1.64-0.38-8.74-0.38-15.61c0-2.47,0-5.02-0.02-7.33c2.3,0.02,4.86,0.02,7.33,0.02
		c6.87,0,13.98,0,15.62,0.38c2.22,0.42,4.16,1.44,6.03,2.43l0.99,0.52l-0.25-0.52C82.07,54.65,81.36,52.33,81.36,49.99z"/>
</g>
</svg>
